<svg width="63" height="20" viewBox="0 0 63 20" fill="none" xmlns="http://www.w3.org/2000/svg">
<path d="M56.4644 19.2238C54.102 19.2238 52.6155 18.1854 51.8723 16.4281V18.9575H49.1914V0H52.005V7.5617C52.7748 5.85766 54.2613 4.95238 56.4644 4.95238C60.154 4.95238 62.4633 7.58833 62.4633 12.0881C62.4633 16.5878 60.154 19.2238 56.4644 19.2238ZM55.8273 17.0671C58.0836 17.0671 59.6496 15.5494 59.6496 12.0881C59.6496 8.65336 58.0836 7.10907 55.8273 7.10907C53.5446 7.10907 52.005 8.65336 52.005 12.0881C52.005 15.5494 53.5446 17.0671 55.8273 17.0671Z" fill="#1D1D1D"/>
<path d="M40.8266 19.2267C37.6414 19.2267 35.916 17.6292 35.916 15.0731C35.916 13.0229 37.1636 11.3987 40.5612 11.1059L43.2155 10.8929C44.8347 10.7331 45.3125 10.3603 45.3125 9.48169C45.3125 7.91077 44.41 6.97888 42.4192 6.97888C40.5612 6.97888 39.5525 7.77765 39.4198 9.48169H36.6592C36.6592 6.71262 38.358 4.95532 42.3927 4.95532C46.4008 4.95532 48.1261 6.71262 48.1261 9.48169V15.4459C48.1261 17.3097 48.2854 18.5078 48.5508 18.9604H46.0292C45.6045 18.4279 45.4452 17.8688 45.4452 16.5908C44.702 18.3481 43.189 19.2267 40.8266 19.2267ZM41.5964 17.283C44.0118 17.283 45.3125 15.3926 45.3125 13.1294V11.9579C45.0205 12.3306 44.2773 12.5436 43.2155 12.6235L41.4637 12.7833C39.4994 12.943 38.7296 13.7684 38.7296 14.8867C38.7296 16.2979 39.579 17.283 41.5964 17.283Z" fill="#1D1D1D"/>
<path d="M35.3839 18.9575H32.5703V0H35.3839V18.9575Z" fill="#1D1D1D"/>
<path d="M25.2628 19.2267C20.9096 19.2267 18.4941 16.4576 18.4941 12.091C18.4941 7.72439 20.9096 4.95532 25.2628 4.95532C29.6159 4.95532 32.0314 7.72439 32.0314 12.091C32.0314 16.4576 29.6159 19.2267 25.2628 19.2267ZM25.2628 17.07C27.7844 17.07 29.2178 15.4192 29.2178 12.091C29.2178 8.78942 27.7844 7.112 25.2628 7.112C22.7411 7.112 21.3078 8.78942 21.3078 12.091C21.3078 15.4192 22.7411 17.07 25.2628 17.07Z" fill="#1D1D1D"/>
<path fill-rule="evenodd" clip-rule="evenodd" d="M13.8248 18.8594H7.18892V14.817C5.09425 16.0986 2.63309 16.837 0 16.837V10.1805C3.97033 10.1805 7.18892 6.95201 7.18892 2.96941V1.10889H13.8248V18.8594Z" fill="#1D1D1D"/>
<path fill-rule="evenodd" clip-rule="evenodd" d="M0.000225215 2.21814L3.87109 2.21814L3.87109 6.65575L0.000233173 6.65576L0.000225215 2.21814Z" fill="#1D1D1D"/>
</svg>
