<svg width="84" height="20" viewBox="0 0 84 20" fill="none" xmlns="http://www.w3.org/2000/svg">
<path d="M83.6007 16.8951H80.4498V7.31051C80.4498 4.98878 79.6175 3.79814 77.4475 3.79814C75.1587 3.79814 73.6724 5.52456 73.6724 8.32255V16.8951H70.5215V1.53594H73.5238V4.21486C74.3561 2.42891 75.8423 1.23828 78.3987 1.23828C81.9063 1.23828 83.6007 3.02423 83.6007 6.74496V16.8951Z" fill="#1D1D1D"/>
<path d="M61.7421 17.1928C56.8671 17.1928 54.1621 14.0971 54.1621 9.21552C54.1621 4.33393 56.8671 1.23828 61.7421 1.23828C66.6171 1.23828 69.3221 4.33393 69.3221 9.21552C69.3221 14.0971 66.6171 17.1928 61.7421 17.1928ZM61.7421 14.7817C64.566 14.7817 66.1712 12.9363 66.1712 9.21552C66.1712 5.52456 64.566 3.64931 61.7421 3.64931C58.9182 3.64931 57.313 5.52456 57.313 9.21552C57.313 12.9363 58.9182 14.7817 61.7421 14.7817Z" fill="#1D1D1D"/>
<path d="M55.3666 16.8933H51.859L47.9353 11.3867L43.9818 16.8933H40.5039L46.122 8.91611L40.8012 1.53418H44.279L47.9353 6.6539L51.5618 1.53418H55.0694L49.7485 8.91611L55.3666 16.8933Z" fill="#1D1D1D"/>
<path d="M34.4823 17.1928C29.6074 17.1928 26.9023 14.0971 26.9023 9.21552C26.9023 4.48276 29.4587 1.23828 34.304 1.23828C39.1492 1.23828 41.7056 4.54229 41.7056 8.94763C41.7056 9.24529 41.6759 9.51318 41.6462 9.81084H30.0532C30.1424 13.4423 31.8665 15.0199 34.4823 15.0199C36.6523 15.0199 38.0197 13.8888 38.4953 12.1326H41.3786C40.695 15.258 38.4655 17.1928 34.4823 17.1928ZM34.304 3.41119C31.9259 3.41119 30.3802 4.83995 30.0532 7.72723H38.5547C38.2277 4.83995 36.682 3.41119 34.304 3.41119Z" fill="#1D1D1D"/>
<path d="M19.1977 0L14.2435 4.34085L0 0L14.2435 19.2238L19.1977 14.8829V0Z" fill="#1D1D1D"/>
</svg>
