<svg width="52" height="20" viewBox="0 0 52 20" fill="none" xmlns="http://www.w3.org/2000/svg">
<path d="M50.1687 19.1404C49.0571 19.1404 48.4219 18.4481 48.4219 17.5695C48.4219 16.6908 49.0571 15.9985 50.1687 15.9985C51.2802 15.9985 51.889 16.6908 51.889 17.5695C51.889 18.4481 51.2802 19.1404 50.1687 19.1404Z" fill="#1D1D1D"/>
<path d="M48.7781 18.9552H45.6551L42.1615 14.0294L38.6415 18.9552H35.5449L40.5471 11.8195L35.8096 5.21631H38.9061L42.1615 9.79593L45.3904 5.21631H48.5134L43.7759 11.8195L48.7781 18.9552Z" fill="#1D1D1D"/>
<path d="M28.9119 19.2267C25.7359 19.2267 24.0156 17.6292 24.0156 15.0731C24.0156 13.0229 25.2595 11.3987 28.6472 11.1059L31.2939 10.8929C32.9083 10.7331 33.3847 10.3603 33.3847 9.48169C33.3847 7.91078 32.4849 6.97888 30.4999 6.97888C28.6472 6.97888 27.6415 7.77765 27.5092 9.48169H24.7567C24.7567 6.71262 26.4505 4.95532 30.4734 4.95532C34.4698 4.95532 36.1901 6.71262 36.1901 9.48169V15.4459C36.1901 17.3097 36.3489 18.5078 36.6136 18.9605H34.0993C33.6758 18.4279 33.517 17.8688 33.517 16.5908C32.776 18.3481 31.2674 19.2267 28.9119 19.2267ZM29.6794 17.283C32.0879 17.283 33.3847 15.3926 33.3847 13.1294V11.9579C33.0936 12.3306 32.3525 12.5437 31.2939 12.6235L29.5471 12.7833C27.5886 12.943 26.8211 13.7684 26.8211 14.8867C26.8211 16.2979 27.668 17.283 29.6794 17.283Z" fill="#1D1D1D"/>
<path d="M23.4871 18.9575H20.6816V0H23.4871V18.9575Z" fill="#1D1D1D"/>
<path d="M13.7294 19.2267C9.3889 19.2267 6.98047 16.4576 6.98047 12.091C6.98047 7.85752 9.25657 4.95532 13.5706 4.95532C17.8846 4.95532 20.1607 7.91078 20.1607 11.8514C20.1607 12.1176 20.1342 12.3573 20.1078 12.6235H9.7859C9.8653 15.8719 11.4003 17.283 13.7294 17.283C15.6614 17.283 16.8789 16.2713 17.3023 14.7003H19.8696C19.2608 17.496 17.2759 19.2267 13.7294 19.2267ZM13.5706 6.899C11.4533 6.899 10.077 8.17703 9.7859 10.7597H17.3553C17.0641 8.17703 15.6879 6.899 13.5706 6.899Z" fill="#1D1D1D"/>
<path d="M2.80543 18.9599H0V9.52996L2.6731 5.22103V8.38949C3.38769 5.96655 4.60514 5.06128 6.59012 5.06128C6.96065 5.06128 7.48998 5.14115 7.83404 5.22103V7.69723L6.48425 7.64397C4.26108 7.64397 2.80543 9.37464 2.80543 12.4366V18.9599Z" fill="#1D1D1D"/>
</svg>
