<svg width="95" height="17" viewBox="0 0 95 17" fill="none" xmlns="http://www.w3.org/2000/svg">
<path d="M76.2115 16.6273C72.0722 16.6273 70.2461 14.8965 70.2461 12.337H73.874C74.0201 13.5558 74.6045 14.214 76.2602 14.214C77.8185 14.214 78.4515 13.6046 78.4515 12.8245C78.4515 12.1176 77.8672 11.7275 76.8689 11.5813L74.8723 11.3131C71.707 10.85 70.587 9.80176 70.587 7.60784C70.587 5.29204 72.2914 3.56128 76.2115 3.56128C80.1316 3.56128 81.836 5.29204 81.836 7.6566H78.208C78.0863 6.73027 77.7211 5.97459 76.1628 5.97459C74.8236 5.97459 74.3123 6.51088 74.3123 7.29094C74.3123 7.97349 74.6775 8.29039 75.5054 8.41228L77.4776 8.68042C80.4724 9.11921 82.1768 10.0455 82.1768 12.5807C82.1768 14.8965 80.3507 16.6273 76.2115 16.6273Z" fill="#1D1D1D"/>
<path d="M67.7604 16.5273C64.6925 16.5273 63.7185 15.5522 63.7185 12.5538V6.41087H61.8193V3.80255H63.7185V-0.000244141H67.4195V3.80255H70.0004V6.41087H67.4195V12.7001C67.4195 13.5777 67.8091 13.8946 68.6856 13.8946H70.0004V16.381C69.4404 16.4298 68.3447 16.5273 67.7604 16.5273Z" fill="#1D1D1D"/>
<path d="M56.083 16.6273C51.9194 16.6273 49.5576 14.019 49.5576 10.0943C49.5576 6.16961 51.9194 3.56128 56.083 3.56128C60.2709 3.56128 62.2188 6.12085 62.2188 8.72918H58.7126C58.5178 7.33969 57.7387 6.36462 56.083 6.36462C54.3056 6.36462 53.2829 7.55909 53.2829 10.0943C53.2829 12.6295 54.3056 13.8239 56.083 13.8239C57.4952 13.8239 58.4935 13.117 58.7126 11.3619H62.2188C62.2188 14.214 60.1248 16.6273 56.083 16.6273Z" fill="#1D1D1D"/>
<path d="M41.3656 16.6273C38.3707 16.6273 36.7881 15.1403 36.7881 12.8245C36.7881 10.8743 37.9081 9.28985 41.1221 9.0217L43.8004 8.80231C44.8474 8.7048 45.1396 8.3879 45.1396 7.85161C45.1396 6.77903 44.4822 6.1696 43.2161 6.1696C41.9743 6.1696 41.2925 6.73027 41.1708 7.85161H37.4698C37.4698 5.24328 39.1255 3.56128 43.1674 3.56128C47.2092 3.56128 48.8649 5.24328 48.8649 7.85161V13.1658C48.8649 14.8722 49.011 15.9691 49.2545 16.3835H45.87C45.5292 15.9447 45.3344 15.4572 45.3344 14.6284C44.6283 15.9447 43.4595 16.6273 41.3656 16.6273ZM42.4613 14.1408C44.1657 14.1408 45.1396 12.8489 45.1396 11.3131V10.6062C44.9691 10.8012 44.4822 10.9231 43.8004 10.9962L42.4369 11.0937C41.0491 11.2156 40.5134 11.7763 40.5134 12.5563C40.5134 13.507 41.0978 14.1408 42.4613 14.1408Z" fill="#1D1D1D"/>
<path d="M32.9157 16.3834H29.1904V3.80491H32.721V6.51075C33.354 4.31683 34.4497 3.63428 36.1054 3.63428C36.4463 3.63428 37.0306 3.70741 37.2741 3.80491V7.04704L35.9593 7.02266C34.1088 7.02266 32.9157 8.33901 32.9157 10.6304V16.3834Z" fill="#1D1D1D"/>
<path d="M26.2184 16.5273C23.1505 16.5273 22.1765 15.5522 22.1765 12.5538V6.41087H20.2773V3.80255H22.1765V-0.000244141H25.8775V3.80255H28.4584V6.41087H25.8775V12.7001C25.8775 13.5777 26.2671 13.8946 27.1436 13.8946H28.4584V16.381C27.8984 16.4298 26.8027 16.5273 26.2184 16.5273Z" fill="#1D1D1D"/>
<path d="M18.1324 16.5273C15.0645 16.5273 14.0906 15.5522 14.0906 12.5538V6.41087H12.1914V3.80255H14.0906V-0.000244141H17.7915V3.80255H20.3725V6.41087H17.7915V12.7001C17.7915 13.5777 18.1811 13.8946 19.0577 13.8946H20.3725V16.381C19.8125 16.4298 18.7168 16.5273 18.1324 16.5273Z" fill="#1D1D1D"/>
<path d="M4.5775 16.6273C1.58265 16.6273 0 15.1403 0 12.8245C0 10.8743 1.12003 9.28985 4.33401 9.0217L7.01234 8.80231C8.05932 8.7048 8.3515 8.3879 8.3515 7.85161C8.3515 6.77903 7.69409 6.1696 6.42798 6.1696C5.18621 6.1696 4.50445 6.73027 4.38271 7.85161H0.681755C0.681755 5.24328 2.33745 3.56128 6.37928 3.56128C10.4211 3.56128 12.0768 5.24328 12.0768 7.85161V13.1658C12.0768 14.8722 12.2229 15.9691 12.4664 16.3835H9.08195C8.74108 15.9447 8.54629 15.4572 8.54629 14.6284C7.84018 15.9447 6.67146 16.6273 4.5775 16.6273ZM5.67318 14.1408C7.37756 14.1408 8.3515 12.8489 8.3515 11.3131V10.6062C8.18106 10.8012 7.69409 10.9231 7.01234 10.9962L5.64883 11.0937C4.26097 11.2156 3.7253 11.7763 3.7253 12.5563C3.7253 13.507 4.30967 14.1408 5.67318 14.1408Z" fill="#1D1D1D"/>
<path fill-rule="evenodd" clip-rule="evenodd" d="M90.2932 15.8213C92.382 15.8213 94.0753 14.1803 94.0753 12.1561C94.0753 10.1318 92.382 8.49084 90.2932 8.49084C88.2045 8.49084 86.5112 10.1318 86.5112 12.1561C86.5112 14.1803 88.2045 15.8213 90.2932 15.8213ZM90.2932 16.4604C92.7462 16.4604 94.7347 14.5333 94.7347 12.1561C94.7347 9.7789 92.7462 7.85181 90.2932 7.85181C87.8403 7.85181 85.8518 9.7789 85.8518 12.1561C85.8518 14.5333 87.8403 16.4604 90.2932 16.4604Z" fill="black" fill-opacity="0.4"/>
<path d="M89.6648 12.3752V11.9491H90.4841C90.6476 11.9491 90.7742 11.9087 90.8637 11.828C90.9562 11.7442 91.0025 11.6291 91.0025 11.4825C91.0025 11.3509 90.9578 11.2403 90.8683 11.1506C90.7788 11.0608 90.6523 11.016 90.4887 11.016H89.6648V10.5674H90.5119C90.7155 10.5674 90.8945 10.6078 91.0488 10.6885C91.2031 10.7663 91.3219 10.8739 91.4053 11.0115C91.4917 11.1461 91.5349 11.3001 91.5349 11.4736C91.5349 11.656 91.4917 11.8145 91.4053 11.9491C91.3219 12.0837 91.2031 12.1883 91.0488 12.2631C90.8945 12.3379 90.7155 12.3752 90.5119 12.3752H89.6648ZM89.2991 13.7076V10.5674H89.8314V13.7076H89.2991ZM91.0766 13.7076L89.9425 12.3438L90.4378 12.1689L91.7478 13.7076H91.0766Z" fill="black" fill-opacity="0.4"/>
</svg>
