<svg width="66" height="20" viewBox="0 0 66 20" fill="none" xmlns="http://www.w3.org/2000/svg">
<path fill-rule="evenodd" clip-rule="evenodd" d="M14.1077 8.14241L9.1807 8.14241L9.18069 1.87022L14.1077 1.87022L14.1077 8.14241Z" fill="#1D1D1D"/>
<path fill-rule="evenodd" clip-rule="evenodd" d="M6.91825 17.5474L1.99124 17.5474L1.99124 11.2753L6.91825 11.2753L6.91825 17.5474Z" fill="#1D1D1D"/>
<path fill-rule="evenodd" clip-rule="evenodd" d="M5.32349 1.77951L15.3444 13.2828L10.7342 17.4442L0.713237 5.94093L5.32349 1.77951Z" fill="#1D1D1D"/>
<path d="M60.3337 16.8977H57.54V3.13899H60.2019V6.31202C60.9135 3.88558 62.1259 2.979 64.1025 2.979C64.4715 2.979 64.9986 3.05899 65.3412 3.13899V5.61875L63.9971 5.56542C61.7832 5.56542 60.3337 7.29859 60.3337 10.365V16.8977Z" fill="#1D1D1D"/>
<path d="M50.622 17.165C46.2997 17.165 43.9014 14.392 43.9014 10.019C43.9014 5.77944 46.1679 2.87305 50.4638 2.87305C54.7597 2.87305 57.0263 5.83277 57.0263 9.77906C57.0263 10.0457 56.9999 10.2857 56.9736 10.5523H46.695C46.7741 13.8053 48.3027 15.2185 50.622 15.2185C52.5459 15.2185 53.7582 14.2053 54.1799 12.6321H56.7364C56.1302 15.4319 54.1536 17.165 50.622 17.165ZM50.4638 4.81953C48.3554 4.81953 46.9849 6.09941 46.695 8.68583H54.2326C53.9427 6.09941 52.5723 4.81953 50.4638 4.81953Z" fill="#1D1D1D"/>
<path d="M37.5067 17.165C33.1845 17.165 30.7861 14.392 30.7861 10.019C30.7861 5.77944 33.0527 2.87305 37.3486 2.87305C41.6445 2.87305 43.9111 5.83277 43.9111 9.77906C43.9111 10.0457 43.8847 10.2857 43.8584 10.5523H33.5798C33.6589 13.8053 35.1875 15.2185 37.5067 15.2185C39.4307 15.2185 40.643 14.2053 41.0647 12.6321H43.6212C43.015 15.4319 41.0383 17.165 37.5067 17.165ZM37.3486 4.81953C35.2402 4.81953 33.8697 6.09941 33.5798 8.68583H41.1174C40.8275 6.09941 39.457 4.81953 37.3486 4.81953Z" fill="#1D1D1D"/>
<path d="M30.918 16.9003H20.1123V15.0071L27.4127 5.16808H20.3759V3.1416H30.6544V5.03476L23.354 14.8738H30.918V16.9003Z" fill="#1D1D1D"/>
</svg>
