<svg width="20" height="21" viewBox="0 0 20 21" fill="none" xmlns="http://www.w3.org/2000/svg">
<g id="Outline / Design, Tools / Ruler Angular">
<path id="Vector" fill-rule="evenodd" clip-rule="evenodd" d="M4.95651 1.5415L7.49917 1.54151C7.49895 1.54151 7.4994 1.54151 7.49917 1.54151C7.4994 1.54151 7.50028 1.54151 7.50051 1.54151H9.99928C9.99909 1.54151 9.99946 1.54151 9.99928 1.54151C9.99946 1.54151 10.0002 1.54151 10.0004 1.54151H12.4994C12.4993 1.54151 12.4995 1.54151 12.4994 1.54151C12.4995 1.54151 12.5001 1.54151 12.5003 1.54151L15.4485 1.54151C16.0064 1.54149 16.472 1.54148 16.849 1.57983C17.2435 1.61996 17.6097 1.70722 17.9397 1.92772C18.1899 2.09492 18.4048 2.30976 18.572 2.55999C18.7925 2.88999 18.8797 3.25613 18.9199 3.65069C18.9582 4.02764 18.9582 4.49325 18.9582 5.05124V5.11511C18.9582 5.6731 18.9582 6.13871 18.9199 6.51566C18.8797 6.91022 18.7925 7.27636 18.572 7.60636C18.4048 7.85658 18.1899 8.07143 17.9397 8.23862C17.6097 8.45912 17.2435 8.54638 16.849 8.58652C16.472 8.62487 16.0064 8.62485 15.4485 8.62484L9.1665 8.62484C8.756 8.62484 8.51099 8.62617 8.33539 8.64978C8.25493 8.66059 8.21463 8.67334 8.19648 8.68081C8.19227 8.68254 8.18951 8.68388 8.1879 8.68472L8.18587 8.68587L8.18472 8.6879C8.18388 8.68951 8.18253 8.69227 8.1808 8.69648C8.17334 8.71463 8.16059 8.75493 8.14978 8.83539C8.12617 9.011 8.12484 9.256 8.12484 9.66651L8.12484 15.9485C8.12485 16.5064 8.12486 16.972 8.08652 17.349C8.04638 17.7436 7.95912 18.1097 7.73862 18.4397C7.57143 18.6899 7.35658 18.9048 7.10635 19.072C6.77636 19.2925 6.41022 19.3797 6.01566 19.4199C5.63871 19.4582 5.1731 19.4582 4.61511 19.4582H4.55124C3.99325 19.4582 3.52764 19.4582 3.15069 19.4199C2.75613 19.3797 2.38999 19.2925 2.05999 19.072C1.80976 18.9048 1.59492 18.6899 1.42772 18.4397C1.20722 18.1097 1.11996 17.7436 1.07983 17.349C1.04148 16.972 1.04149 16.5064 1.04151 15.9485L1.0415 5.45651C1.04148 4.70777 1.04146 4.08342 1.1081 3.58777C1.17844 3.06461 1.33316 2.59228 1.71272 2.21272C2.09228 1.83316 2.56461 1.67844 3.08777 1.6081C3.58342 1.54146 4.20777 1.54148 4.95651 1.5415ZM2.29151 8.62484H4.16651C4.51168 8.62484 4.79151 8.34502 4.79151 7.99984C4.79151 7.65466 4.51168 7.37484 4.16651 7.37484H2.29151V5.49984C2.29151 4.6965 2.29283 4.15686 2.34695 3.75433C2.39865 3.36978 2.48801 3.2052 2.5966 3.0966C2.7052 2.98801 2.86978 2.89865 3.25433 2.84695C3.65686 2.79283 4.1965 2.79151 4.99984 2.79151H6.87484V4.66651C6.87484 5.01168 7.15466 5.29151 7.49984 5.29151C7.84502 5.29151 8.12484 5.01168 8.12484 4.66651L8.12484 2.79151H9.37484V3.83317C9.37484 4.17835 9.65466 4.45817 9.99984 4.45817C10.345 4.45817 10.6248 4.17835 10.6248 3.83317V2.79151H11.8748V4.66651C11.8748 5.01168 12.1547 5.29151 12.4998 5.29151C12.845 5.29151 13.1248 5.01168 13.1248 4.66651V2.79151H14.3748V3.83317C14.3748 4.17835 14.6547 4.45817 14.9998 4.45817C15.345 4.45817 15.6248 4.17835 15.6248 3.83317V2.79159C16.1103 2.79213 16.4533 2.79602 16.7225 2.82341C17.0182 2.85349 17.1548 2.90667 17.2452 2.96706C17.359 3.04306 17.4566 3.14071 17.5326 3.25445C17.593 3.34483 17.6462 3.48147 17.6763 3.7772C17.7074 4.08337 17.7082 4.48497 17.7082 5.08317C17.7082 5.68137 17.7074 6.08298 17.6763 6.38915C17.6462 6.68487 17.593 6.82152 17.5326 6.91189C17.4566 7.02563 17.359 7.12329 17.2452 7.19929C17.1548 7.25967 17.0182 7.31286 16.7225 7.34294C16.4163 7.37408 16.0147 7.37484 15.4165 7.37484H9.1665C9.15404 7.37484 9.14161 7.37484 9.12922 7.37484C8.76854 7.37479 8.43784 7.37476 8.16883 7.41092C7.8726 7.45075 7.55949 7.54446 7.30197 7.80198C7.04446 8.05949 6.95075 8.3726 6.91092 8.66883C6.87475 8.93784 6.87479 9.26854 6.87484 9.62922C6.87484 9.64161 6.87484 9.65404 6.87484 9.66651V15.9165C6.87484 16.5147 6.87408 16.9163 6.84294 17.2225C6.81285 17.5182 6.75967 17.6549 6.69929 17.7452C6.62329 17.859 6.52563 17.9566 6.41189 18.0326C6.32152 18.093 6.18487 18.1462 5.88915 18.1763C5.58298 18.2074 5.18137 18.2082 4.58317 18.2082C3.98497 18.2082 3.58337 18.2074 3.2772 18.1763C2.98147 18.1462 2.84483 18.093 2.75445 18.0326C2.64072 17.9566 2.54306 17.859 2.46706 17.7452C2.40667 17.6549 2.35349 17.5182 2.32341 17.2225C2.29602 16.9533 2.29213 16.6103 2.29159 16.1248H3.33317C3.67835 16.1248 3.95817 15.845 3.95817 15.4998C3.95817 15.1547 3.67835 14.8748 3.33317 14.8748H2.29151V13.6248H4.16651C4.51168 13.6248 4.79151 13.345 4.79151 12.9998C4.79151 12.6547 4.51168 12.3748 4.16651 12.3748L2.29151 12.3748V11.1248H3.33317C3.67835 11.1248 3.95817 10.845 3.95817 10.4998C3.95817 10.1547 3.67835 9.87484 3.33317 9.87484H2.29151V8.62484Z" fill="#7D7D7D"/>
</g>
</svg>
