<svg width="20" height="21" viewBox="0 0 20 21" fill="none" xmlns="http://www.w3.org/2000/svg">
<g id="Outline / Home, Furniture / Bath">
<path id="Vector" fill-rule="evenodd" clip-rule="evenodd" d="M4.48748 2.7915C3.73491 2.7915 3.12484 3.40158 3.12484 4.15414V9.87484H3.36174C3.3708 9.87482 3.37983 9.87483 3.3888 9.87483C3.39324 9.87484 3.39766 9.87484 3.40207 9.87484L16.6109 9.87483C16.6198 9.87483 16.6289 9.87482 16.6379 9.87484H18.3332C18.6783 9.87484 18.9582 10.1547 18.9582 10.4998C18.9582 10.845 18.6783 11.1248 18.3332 11.1248H18.1099C18.1153 11.1623 18.1193 11.2002 18.1218 11.2385C18.1249 11.2867 18.1249 11.3387 18.1248 11.3888L18.1248 11.4204C18.1248 11.7331 18.1248 11.9164 18.1119 12.1208C17.9936 13.9844 16.9865 15.7054 15.527 16.8307C15.5385 16.8487 15.5491 16.8675 15.5589 16.887L16.3922 18.5537C16.5466 18.8624 16.4214 19.2378 16.1127 19.3922C15.8039 19.5466 15.4285 19.4214 15.2742 19.1127L14.4677 17.4999C13.7996 17.8381 13.073 18.0607 12.3173 18.1372C12.1135 18.1578 11.9892 18.1625 11.7773 18.1705L11.7718 18.1707C11.1549 18.1938 10.5511 18.2082 9.99984 18.2082C9.44859 18.2082 8.84476 18.1938 8.2279 18.1707L8.22233 18.1705C8.01049 18.1625 7.88615 18.1578 7.68242 18.1372C6.92669 18.0607 6.20007 17.8381 5.53193 17.4999L4.72552 19.1127C4.57115 19.4214 4.19573 19.5466 3.887 19.3922C3.57826 19.2378 3.45312 18.8624 3.60749 18.5537L4.44082 16.887C4.45058 16.8675 4.46122 16.8487 4.47267 16.8307C3.01313 15.7054 2.00609 13.9844 1.88781 12.1208C1.87483 11.9164 1.87483 11.733 1.87484 11.4203L1.87484 11.4021C1.87484 11.3977 1.87484 11.3932 1.87483 11.3888C1.87483 11.3734 1.87482 11.3578 1.8749 11.3422C1.87486 11.3392 1.87484 11.3362 1.87484 11.3332V11.1248H1.6665C1.32133 11.1248 1.0415 10.845 1.0415 10.4998C1.0415 10.1547 1.32133 9.87484 1.6665 9.87484H1.87484V4.15414C1.87484 2.71122 3.04456 1.5415 4.48748 1.5415C5.55579 1.5415 6.51648 2.19192 6.91325 3.18383L7.00503 3.41328C7.66611 3.24558 8.38345 3.28444 9.05955 3.57328C9.90565 3.93475 10.5213 4.61675 10.8366 5.41695C10.9604 5.73104 10.8123 6.08665 10.5023 6.22014L5.53496 8.35854C5.37961 8.42542 5.20378 8.42648 5.04763 8.36147C4.89148 8.29647 4.76835 8.17096 4.70634 8.0136C4.39116 7.21371 4.37227 6.28746 4.72253 5.42495C4.97186 4.81096 5.37662 4.30758 5.87205 3.94656L5.75265 3.64807C5.54572 3.13073 5.04466 2.7915 4.48748 2.7915ZM3.40207 11.1248C3.36868 11.1248 3.34881 11.1248 3.3338 11.125C3.32288 11.1251 3.31899 11.1253 3.31884 11.1253C3.31829 11.1254 3.3188 11.1253 3.31884 11.1253C3.21463 11.1321 3.13237 11.2149 3.12531 11.3191C3.12527 11.3201 3.12512 11.3242 3.12502 11.3338C3.12485 11.3488 3.12484 11.3687 3.12484 11.4021C3.12484 11.7376 3.1251 11.8809 3.1353 12.0416C3.28982 14.4763 5.38118 16.6477 7.80837 16.8936C7.97084 16.91 8.06076 16.9135 8.27483 16.9215C8.88152 16.9443 9.46889 16.9582 9.99984 16.9582C10.5308 16.9582 11.1182 16.9443 11.7248 16.9215C11.9389 16.9135 12.0288 16.91 12.1913 16.8936C14.6185 16.6477 16.7099 14.4763 16.8644 12.0416C16.8746 11.8809 16.8748 11.7376 16.8748 11.4021C16.8748 11.3687 16.8748 11.3488 16.8747 11.3338C16.8746 11.3253 16.8744 11.3211 16.8744 11.3196C16.8743 11.3186 16.8743 11.3185 16.8744 11.3196C16.8676 11.2151 16.7844 11.1321 16.68 11.1253C16.681 11.1253 16.6813 11.1253 16.68 11.1253C16.6783 11.1252 16.674 11.1251 16.6659 11.125C16.6509 11.1248 16.631 11.1248 16.5976 11.1248H3.40207ZM8.56847 4.72278C8.02072 4.48877 7.42861 4.52133 6.92245 4.76773C6.4734 4.98634 6.09249 5.37367 5.88068 5.89526C5.74442 6.2308 5.69514 6.5803 5.7219 6.91715L9.37286 5.34543C9.16504 5.07766 8.89262 4.86126 8.56847 4.72278Z" fill="#7D7D7D"/>
</g>
</svg>
