<svg width="20" height="21" viewBox="0 0 20 21" fill="none" xmlns="http://www.w3.org/2000/svg">
<g id="Outline / Home, Furniture / Bed">
<path id="Vector" fill-rule="evenodd" clip-rule="evenodd" d="M9.11949 3.20801H10.8802C12.4117 3.20799 13.6247 3.20798 14.574 3.33562C15.551 3.46698 16.3418 3.74374 16.9655 4.36738C17.5891 4.99101 17.8659 5.7818 17.9972 6.75882C18.1234 7.69696 18.1248 8.8926 18.1248 10.3986C18.4114 10.635 18.6389 10.9398 18.7837 11.2894C18.884 11.5314 18.9228 11.781 18.9409 12.0452C18.9582 12.299 18.9582 12.6082 18.9582 12.9786V13.0207C18.9582 13.3911 18.9582 13.7003 18.9409 13.9541C18.9228 14.2184 18.884 14.468 18.7837 14.71C18.5511 15.2715 18.105 15.7176 17.5435 15.9502C17.3015 16.0505 17.0519 16.0893 16.7876 16.1074C16.6867 16.1143 16.577 16.1184 16.4582 16.1209V17.1663C16.4582 17.5115 16.1783 17.7913 15.8332 17.7913C15.488 17.7913 15.2082 17.5115 15.2082 17.1663V16.1247H4.7915V17.1663C4.7915 17.5115 4.51168 17.7913 4.1665 17.7913C3.82133 17.7913 3.5415 17.5115 3.5415 17.1663V16.1209C3.42268 16.1184 3.31298 16.1143 3.21203 16.1074C2.94778 16.0893 2.69818 16.0505 2.45619 15.9502C1.89467 15.7176 1.44854 15.2715 1.21595 14.71C1.11571 14.468 1.07684 14.2184 1.05881 13.9541C1.04149 13.7003 1.0415 13.3911 1.0415 13.0207V12.9786C1.0415 12.6082 1.04149 12.299 1.05881 12.0452C1.07684 11.781 1.11571 11.5313 1.21595 11.2894C1.36073 10.9398 1.58825 10.635 1.87484 10.3986C1.87484 8.8926 1.87632 7.69696 2.00245 6.75882C2.13381 5.7818 2.41057 4.99101 3.03421 4.36738C3.65784 3.74374 4.44863 3.46698 5.42565 3.33562C6.375 3.20798 7.58802 3.20799 9.11949 3.20801ZM3.12516 9.89876C3.15395 9.89621 3.1829 9.89397 3.21203 9.89198C3.42184 9.87767 3.66945 9.87519 3.95817 9.87476L3.95817 9.20634C3.95815 8.45761 3.95813 7.83326 4.02476 7.33761C4.0951 6.81445 4.24983 6.34211 4.62938 5.96255C5.00894 5.583 5.48128 5.42827 6.00444 5.35793C6.50009 5.2913 7.12444 5.29132 7.87317 5.29134H12.1265C12.8752 5.29132 13.4996 5.2913 13.9952 5.35793C14.5184 5.42827 14.9907 5.583 15.3703 5.96256C15.7498 6.34211 15.9046 6.81445 15.9749 7.33761C16.0416 7.83326 16.0415 8.45761 16.0415 9.20635V9.87476C16.3302 9.87519 16.5778 9.87767 16.7876 9.89198C16.8168 9.89397 16.8457 9.89621 16.8745 9.89876C16.8725 8.61972 16.8584 7.66964 16.7584 6.92538C16.6457 6.08697 16.4343 5.60394 16.0816 5.25126C15.7289 4.89859 15.2459 4.68719 14.4075 4.57447C13.5511 4.45934 12.4222 4.45801 10.8332 4.45801H9.1665C7.57749 4.45801 6.4486 4.45934 5.59221 4.57447C4.7538 4.68719 4.27077 4.89859 3.91809 5.25126C3.56542 5.60394 3.35402 6.08697 3.2413 6.92538C3.14124 7.66964 3.12714 8.61972 3.12516 9.89876ZM14.7915 9.87467V9.24967C14.7915 8.44633 14.7902 7.9067 14.7361 7.50417C14.6844 7.11962 14.595 6.95504 14.4864 6.84644C14.3778 6.73784 14.2132 6.64849 13.8287 6.59679C13.4261 6.54267 12.8865 6.54134 12.0832 6.54134H10.6248V9.87467H14.7915ZM9.37484 9.87467V6.54134H7.9165C7.11316 6.54134 6.57353 6.54267 6.171 6.59679C5.78645 6.64849 5.62187 6.73784 5.51327 6.84644C5.40467 6.95504 5.31532 7.11962 5.26362 7.50417C5.2095 7.9067 5.20817 8.44633 5.20817 9.24967V9.87467H9.37484ZM3.29712 11.1391C3.09652 11.1528 2.99884 11.1773 2.93454 11.204C2.67931 11.3097 2.47652 11.5125 2.3708 11.7677C2.34416 11.832 2.3196 11.9297 2.30591 12.1303C2.29184 12.3365 2.2915 12.6028 2.2915 12.9997C2.2915 13.3965 2.29184 13.6628 2.30591 13.8691C2.3196 14.0697 2.34416 14.1673 2.3708 14.2316C2.47652 14.4869 2.6793 14.6897 2.93454 14.7954C2.99884 14.822 3.09652 14.8466 3.29712 14.8603C3.50334 14.8743 3.76967 14.8747 4.1665 14.8747H15.8332C16.23 14.8747 16.4963 14.8743 16.7026 14.8603C16.9032 14.8466 17.0008 14.822 17.0651 14.7954C17.3204 14.6897 17.5232 14.4869 17.6289 14.2316C17.6555 14.1673 17.6801 14.0697 17.6938 13.8691C17.7078 13.6628 17.7082 13.3965 17.7082 12.9997C17.7082 12.6028 17.7078 12.3365 17.6938 12.1303C17.6801 11.9297 17.6555 11.832 17.6289 11.7677C17.5232 11.5125 17.3204 11.3097 17.0651 11.204C17.0008 11.1773 16.9032 11.1528 16.7026 11.1391C16.4963 11.125 16.23 11.1247 15.8332 11.1247H4.1665C3.76967 11.1247 3.50334 11.125 3.29712 11.1391Z" fill="#7D7D7D"/>
</g>
</svg>
