<svg width="20" height="21" viewBox="0 0 20 21" fill="none" xmlns="http://www.w3.org/2000/svg">
<g id="location">
<g id="vuesax/outline/location">
<g id="location_2">
<path id="Vector" d="M9.9999 12.3084C8.2249 12.3084 6.7749 10.8667 6.7749 9.08337C6.7749 7.30003 8.2249 5.8667 9.9999 5.8667C11.7749 5.8667 13.2249 7.30837 13.2249 9.0917C13.2249 10.875 11.7749 12.3084 9.9999 12.3084ZM9.9999 7.1167C8.91657 7.1167 8.0249 8.00003 8.0249 9.0917C8.0249 10.1834 8.90824 11.0667 9.9999 11.0667C11.0916 11.0667 11.9749 10.1834 11.9749 9.0917C11.9749 8.00003 11.0832 7.1167 9.9999 7.1167Z" fill="#7D7D7D"/>
<path id="Vector_2" d="M9.9999 19.4667C8.76657 19.4667 7.5249 19.0001 6.55824 18.0751C4.0999 15.7084 1.38324 11.9334 2.40824 7.44175C3.33324 3.36675 6.89157 1.54175 9.9999 1.54175C9.9999 1.54175 9.9999 1.54175 10.0082 1.54175C13.1166 1.54175 16.6749 3.36675 17.5999 7.45008C18.6166 11.9417 15.8999 15.7084 13.4416 18.0751C12.4749 19.0001 11.2332 19.4667 9.9999 19.4667ZM9.9999 2.79175C7.5749 2.79175 4.45824 4.08341 3.63324 7.71675C2.73324 11.6417 5.1999 15.0251 7.43324 17.1667C8.8749 18.5584 11.1332 18.5584 12.5749 17.1667C14.7999 15.0251 17.2666 11.6417 16.3832 7.71675C15.5499 4.08341 12.4249 2.79175 9.9999 2.79175Z" fill="#7D7D7D"/>
</g>
</g>
</g>
</svg>
