<svg width="20" height="21" viewBox="0 0 20 21" fill="none" xmlns="http://www.w3.org/2000/svg">
<g id="call">
<g id="vuesax/outline/call">
<g id="call_2">
<path id="Vector" d="M14.5415 19.4584C13.5998 19.4584 12.6082 19.2334 11.5832 18.8001C10.5832 18.3751 9.57484 17.7917 8.5915 17.0834C7.6165 16.3667 6.67484 15.5667 5.78317 14.6917C4.89984 13.8001 4.09984 12.8584 3.3915 11.8917C2.67484 10.8917 2.09984 9.89175 1.6915 8.92508C1.25817 7.89175 1.0415 6.89175 1.0415 5.95008C1.0415 5.30008 1.15817 4.68341 1.38317 4.10841C1.6165 3.51675 1.9915 2.96675 2.49984 2.49175C3.1415 1.85841 3.87484 1.54175 4.65817 1.54175C4.98317 1.54175 5.3165 1.61675 5.59984 1.75008C5.92484 1.90008 6.19984 2.12508 6.39984 2.42508L8.33317 5.15008C8.50817 5.39175 8.6415 5.62508 8.73317 5.85841C8.8415 6.10841 8.89984 6.35842 8.89984 6.60008C8.89984 6.91675 8.80817 7.22508 8.63317 7.51675C8.50817 7.74175 8.3165 7.98342 8.07484 8.22508L7.50817 8.81675C7.5165 8.84175 7.52484 8.85842 7.53317 8.87508C7.63317 9.05008 7.83317 9.35008 8.2165 9.80008C8.62484 10.2667 9.00817 10.6917 9.3915 11.0834C9.88317 11.5667 10.2915 11.9501 10.6748 12.2667C11.1498 12.6667 11.4582 12.8667 11.6415 12.9584L11.6248 13.0001L12.2332 12.4001C12.4915 12.1417 12.7415 11.9501 12.9832 11.8251C13.4415 11.5417 14.0248 11.4917 14.6082 11.7334C14.8248 11.8251 15.0582 11.9501 15.3082 12.1251L18.0748 14.0917C18.3832 14.3001 18.6082 14.5667 18.7415 14.8834C18.8665 15.2001 18.9248 15.4917 18.9248 15.7834C18.9248 16.1834 18.8332 16.5834 18.6582 16.9584C18.4832 17.3334 18.2665 17.6584 17.9915 17.9584C17.5165 18.4834 16.9998 18.8584 16.3998 19.1001C15.8248 19.3334 15.1998 19.4584 14.5415 19.4584ZM4.65817 2.79175C4.19984 2.79175 3.77484 2.99175 3.3665 3.39175C2.98317 3.75008 2.7165 4.14175 2.54984 4.56675C2.37484 5.00008 2.2915 5.45841 2.2915 5.95008C2.2915 6.72508 2.47484 7.56675 2.8415 8.43342C3.2165 9.31675 3.7415 10.2334 4.40817 11.1501C5.07484 12.0667 5.83317 12.9584 6.6665 13.8001C7.49984 14.6251 8.39984 15.3917 9.32484 16.0667C10.2248 16.7251 11.1498 17.2584 12.0665 17.6417C13.4915 18.2501 14.8248 18.3917 15.9248 17.9334C16.3498 17.7584 16.7248 17.4917 17.0665 17.1084C17.2582 16.9001 17.4082 16.6751 17.5332 16.4084C17.6332 16.2001 17.6832 15.9834 17.6832 15.7667C17.6832 15.6334 17.6582 15.5001 17.5915 15.3501C17.5665 15.3001 17.5165 15.2084 17.3582 15.1001L14.5915 13.1334C14.4248 13.0167 14.2748 12.9334 14.1332 12.8751C13.9498 12.8001 13.8748 12.7251 13.5915 12.9001C13.4248 12.9834 13.2748 13.1084 13.1082 13.2751L12.4748 13.9001C12.1498 14.2167 11.6498 14.2917 11.2665 14.1501L11.0415 14.0501C10.6998 13.8667 10.2998 13.5834 9.85817 13.2084C9.45817 12.8667 9.02484 12.4667 8.49984 11.9501C8.0915 11.5334 7.68317 11.0917 7.25817 10.6001C6.8665 10.1417 6.58317 9.75008 6.40817 9.42508L6.30817 9.17508C6.25817 8.98342 6.2415 8.87508 6.2415 8.75841C6.2415 8.45842 6.34984 8.19175 6.55817 7.98341L7.18317 7.33342C7.34984 7.16675 7.47484 7.00841 7.55817 6.86675C7.62484 6.75841 7.64984 6.66675 7.64984 6.58342C7.64984 6.51675 7.62484 6.41675 7.58317 6.31675C7.52484 6.18341 7.43317 6.03341 7.3165 5.87508L5.38317 3.14175C5.29984 3.02508 5.19984 2.94175 5.07484 2.88341C4.9415 2.82508 4.79984 2.79175 4.65817 2.79175ZM11.6248 13.0084L11.4915 13.5751L11.7165 12.9917C11.6748 12.9834 11.6415 12.9917 11.6248 13.0084Z" fill="#7D7D7D"/>
</g>
</g>
</g>
</svg>
