<svg width="33" height="36" viewBox="0 0 33 36" fill="none" xmlns="http://www.w3.org/2000/svg">
<path d="M25.6654 14.3333V10.6667C25.6654 5.60406 21.5613 1.5 16.4987 1.5C11.4361 1.5 7.33203 5.60406 7.33203 10.6667V14.3333M16.4987 22.5833V26.25M10.632 34.5H22.3654C25.4457 34.5 26.9858 34.5 28.1623 33.9005C29.1972 33.3732 30.0386 32.5318 30.5659 31.4969C31.1654 30.3204 31.1654 28.7803 31.1654 25.7V23.1333C31.1654 20.053 31.1654 18.5129 30.5659 17.3364C30.0386 16.3015 29.1972 15.4601 28.1623 14.9328C26.9858 14.3333 25.4457 14.3333 22.3654 14.3333H10.632C7.55174 14.3333 6.0116 14.3333 4.83508 14.9328C3.80019 15.4601 2.9588 16.3015 2.4315 17.3364C1.83203 18.5129 1.83203 20.053 1.83203 23.1333V25.7C1.83203 28.7803 1.83203 30.3204 2.4315 31.4969C2.9588 32.5318 3.80019 33.3732 4.83508 33.9005C6.0116 34.5 7.55174 34.5 10.632 34.5Z" stroke="#1D1D1D" stroke-width="3" stroke-linecap="round" stroke-linejoin="round"/>
</svg>
