<svg width="256" height="256" viewBox="0 0 256 256" fill="none" xmlns="http://www.w3.org/2000/svg">
<rect width="256" height="256" fill="white"/>
<path d="M85.6966 135.735V120.265H88.6649V135.735H85.6966ZM76 135.735V120.265H78.9683V135.735H76ZM78.5726 129.039V126.63H86.2023V129.039H78.5726Z" fill="#1D1D1D"/>
<path d="M98.4046 136C96.8802 136 95.5389 135.661 94.3809 134.983C93.2229 134.306 92.314 133.37 91.6544 132.177C91.0094 130.969 90.6869 129.576 90.6869 128C90.6869 126.424 91.0094 125.039 91.6544 123.845C92.314 122.637 93.2229 121.694 94.3809 121.017C95.5389 120.339 96.8802 120 98.4046 120C99.9291 120 101.27 120.339 102.428 121.017C103.601 121.694 104.51 122.637 105.155 123.845C105.815 125.039 106.144 126.424 106.144 128C106.144 129.576 105.815 130.969 105.155 132.177C104.51 133.37 103.601 134.306 102.428 134.983C101.27 135.661 99.9291 136 98.4046 136ZM98.4046 133.326C99.3574 133.326 100.186 133.112 100.889 132.685C101.593 132.243 102.135 131.624 102.516 130.829C102.912 130.033 103.11 129.09 103.11 128C103.11 126.895 102.912 125.952 102.516 125.171C102.135 124.376 101.593 123.764 100.889 123.337C100.186 122.91 99.3574 122.696 98.4046 122.696C97.4518 122.696 96.6236 122.91 95.92 123.337C95.2164 123.764 94.6667 124.376 94.2709 125.171C93.8898 125.952 93.6993 126.895 93.6993 128C93.6993 129.09 93.8898 130.033 94.2709 130.829C94.6667 131.624 95.2164 132.243 95.92 132.685C96.6236 133.112 97.4518 133.326 98.4046 133.326Z" fill="#1D1D1D"/>
<path d="M114.148 136C113.019 136 111.993 135.772 111.069 135.315C110.146 134.858 109.413 134.173 108.871 133.26C108.328 132.346 108.057 131.182 108.057 129.768V120.265H111.025V129.79C111.025 130.556 111.15 131.204 111.399 131.735C111.648 132.25 112.015 132.634 112.499 132.884C112.982 133.134 113.547 133.26 114.192 133.26C114.866 133.26 115.438 133.134 115.907 132.884C116.39 132.634 116.757 132.25 117.006 131.735C117.27 131.204 117.402 130.556 117.402 129.79V120.265H120.37V129.768C120.37 131.182 120.084 132.346 119.513 133.26C118.956 134.173 118.208 134.858 117.27 135.315C116.332 135.772 115.291 136 114.148 136Z" fill="#1D1D1D"/>
<path d="M128.056 136C126.942 136 125.946 135.808 125.066 135.425C124.201 135.042 123.52 134.483 123.021 133.746C122.523 133.009 122.259 132.118 122.23 131.072H125.374C125.389 131.529 125.506 131.941 125.726 132.309C125.946 132.678 126.253 132.972 126.649 133.193C127.045 133.4 127.514 133.503 128.056 133.503C128.511 133.503 128.907 133.429 129.244 133.282C129.596 133.12 129.867 132.899 130.057 132.619C130.263 132.339 130.365 132.007 130.365 131.624C130.365 131.168 130.248 130.792 130.013 130.497C129.793 130.188 129.493 129.937 129.112 129.746C128.731 129.54 128.291 129.355 127.793 129.193C127.309 129.017 126.796 128.84 126.253 128.663C125.066 128.25 124.157 127.72 123.527 127.072C122.897 126.409 122.582 125.532 122.582 124.442C122.582 123.514 122.801 122.718 123.241 122.055C123.681 121.392 124.297 120.884 125.088 120.53C125.88 120.177 126.781 120 127.793 120C128.833 120 129.75 120.184 130.541 120.552C131.333 120.906 131.956 121.422 132.41 122.099C132.864 122.777 133.106 123.573 133.136 124.486H129.947C129.933 124.147 129.837 123.831 129.662 123.536C129.486 123.227 129.236 122.983 128.914 122.807C128.592 122.615 128.203 122.519 127.749 122.519C127.368 122.505 127.023 122.564 126.715 122.696C126.407 122.829 126.158 123.028 125.968 123.293C125.792 123.543 125.704 123.86 125.704 124.243C125.704 124.611 125.792 124.921 125.968 125.171C126.144 125.422 126.393 125.643 126.715 125.834C127.038 126.011 127.419 126.18 127.859 126.343C128.298 126.49 128.775 126.645 129.288 126.807C130.065 127.072 130.768 127.389 131.399 127.757C132.044 128.11 132.557 128.575 132.938 129.149C133.319 129.724 133.509 130.483 133.509 131.425C133.509 132.236 133.297 132.987 132.872 133.68C132.461 134.372 131.853 134.932 131.047 135.359C130.241 135.786 129.244 136 128.056 136Z" fill="#1D1D1D"/>
<path d="M135.502 135.735V120.265H145.638V122.674H138.47V126.718H144.978V129.039H138.47V133.326H145.638V135.735H135.502Z" fill="#1D1D1D"/>
<path d="M147.817 135.735V120.265H150.785L157.865 130.917V120.265H160.833V135.735H157.865L150.785 125.105V135.735H147.817Z" fill="#1D1D1D"/>
<path d="M163.331 135.735V120.265H168.674C170.462 120.265 171.943 120.589 173.115 121.238C174.288 121.871 175.153 122.77 175.71 123.934C176.282 125.083 176.567 126.438 176.567 128C176.567 129.562 176.282 130.924 175.71 132.088C175.153 133.238 174.288 134.136 173.115 134.785C171.957 135.418 170.477 135.735 168.674 135.735H163.331ZM166.299 133.171H168.52C169.781 133.171 170.777 132.965 171.51 132.552C172.243 132.14 172.764 131.551 173.071 130.785C173.379 130.004 173.533 129.076 173.533 128C173.533 126.91 173.379 125.982 173.071 125.215C172.764 124.435 172.243 123.838 171.51 123.425C170.777 123.013 169.781 122.807 168.52 122.807H166.299V133.171Z" fill="#1D1D1D"/>
<path d="M179.175 135.845C178.618 135.845 178.171 135.683 177.834 135.359C177.497 135.02 177.328 134.608 177.328 134.122C177.328 133.635 177.497 133.23 177.834 132.906C178.171 132.567 178.618 132.398 179.175 132.398C179.717 132.398 180.157 132.567 180.494 132.906C180.831 133.23 181 133.635 181 134.122C181 134.608 180.831 135.02 180.494 135.359C180.157 135.683 179.717 135.845 179.175 135.845Z" fill="#1D1D1D"/>
</svg>
